<?xml version="1.0" standalone="no"?><svg xmlns="http://www.w3.org/2000/svg" viewBox="0 0 1440 320"><path fill="#0099ff" fill-opacity="1" d="M0,192L24,208C48,224,96,256,144,266.7C192,277,240,267,288,272C336,277,384,299,432,288C480,277,528,235,576,202.7C624,171,672,149,720,144C768,139,816,149,864,165.3C912,181,960,203,1008,224C1056,245,1104,267,1152,234.7C1200,203,1248,117,1296,85.3C1344,53,1392,75,1416,85.3L1440,96L1440,320L1416,320C1392,320,1344,320,1296,320C1248,320,1200,320,1152,320C1104,320,1056,320,1008,320C960,320,912,320,864,320C816,320,768,320,720,320C672,320,624,320,576,320C528,320,480,320,432,320C384,320,336,320,288,320C240,320,192,320,144,320C96,320,48,320,24,320L0,320Z"></path></svg>